<svg width="753" height="736" viewBox="0 0 753 736" fill="none" xmlns="http://www.w3.org/2000/svg">
<path fill-rule="evenodd" clip-rule="evenodd" d="M376.289 676.564C550.856 676.564 692.371 538.28 692.371 367.698C692.371 197.116 550.856 58.8316 376.289 58.8316C201.721 58.8316 60.2062 197.116 60.2062 367.698C60.2062 538.28 201.721 676.564 376.289 676.564ZM376.289 735.395C584.107 735.395 752.577 570.771 752.577 367.698C752.577 164.624 584.107 0 376.289 0C168.47 0 0 164.624 0 367.698C0 570.771 168.47 735.395 376.289 735.395ZM328.698 252.973H526V180H243V576H328.698V411.424H501.437V339.25H328.698V252.973Z" fill="black"/>
</svg>
